<?xml version="1.0" encoding="UTF-8" standalone="no"?>
<svg width="512px" height="128px" viewBox="0 0 512 128" version="1.1" xmlns="http://www.w3.org/2000/svg" xmlns:xlink="http://www.w3.org/1999/xlink" xmlns:sketch="http://www.bohemiancoding.com/sketch/ns">
    <!-- Generator: Sketch 3.4.4 (17249) - http://www.bohemiancoding.com/sketch -->
    <title>ReduxKit</title>
    <desc>Created with Sketch.</desc>
    <defs></defs>
    <g id="Page-1" stroke="none" stroke-width="1" fill="none" fill-rule="evenodd" sketch:type="MSPage">
        <g id="ReduxKit" sketch:type="MSArtboardGroup">
            <rect id="Rectangle-1" fill="#4381C7" sketch:type="MSShapeGroup" x="0" y="0" width="128" height="128"></rect>
            <path d="M17.9882812,71.1367188 L21.0820312,71.1367188 C23.0859375,71.1367188 24.4394531,72.4902344 24.4394531,74.3710938 C24.4394531,76.2871094 23.15625,77.5703125 21.0644531,77.5703125 L17.9882812,77.5703125 L17.9882812,71.1367188 Z M17.9882812,82.4921875 L20.4316406,82.4921875 L24.4394531,91 L32.7714844,91 L27.9550781,81.3847656 C30.609375,80.1191406 32.0507812,77.2363281 32.0507812,74.2480469 C32.0507812,68.8164062 28.5703125,65.6347656 21.8027344,65.6347656 L10.5351562,65.6347656 L10.5351562,91 L17.9882812,91 L17.9882812,82.4921875 Z M44.390625,75.7246094 C46.1660156,75.7246094 47.4140625,76.9023438 47.5371094,78.7304688 L41.2441406,78.7304688 C41.3847656,76.9726562 42.6855469,75.7246094 44.390625,75.7246094 L44.390625,75.7246094 Z M47.7480469,84.6191406 C47.3085938,85.8144531 46.0957031,86.5351562 44.5839844,86.5351562 C42.5625,86.5351562 41.1386719,85.1113281 41.1386719,83.1074219 L41.1386719,82.6503906 L54.2695312,82.6503906 L54.2695312,80.6992188 C54.2695312,74.6523438 50.3320312,70.75 44.25,70.75 C38.0625,70.75 34.1777344,74.7753906 34.1777344,81.2265625 C34.1777344,87.6425781 38.0273438,91.4921875 44.4785156,91.4921875 C49.8574219,91.4921875 53.5664062,88.8554688 54.1816406,84.6191406 L47.7480469,84.6191406 Z M63.7617188,91.28125 C66.7148438,91.28125 69.0175781,89.6640625 69.6855469,87.5898438 L69.8261719,87.5898438 L69.8261719,91 L77.0332031,91 L77.0332031,64.3164062 L69.8261719,64.3164062 L69.8261719,74.7929688 L69.6855469,74.7929688 C68.9121094,72.578125 66.75,70.9609375 63.8671875,70.9609375 C58.9453125,70.9609375 56.0273438,74.7226562 56.0273438,81.0683594 C56.0273438,87.5019531 58.8925781,91.28125 63.7617188,91.28125 L63.7617188,91.28125 Z M66.6269531,76.5332031 C68.6484375,76.5332031 69.8613281,78.2734375 69.8613281,81.1386719 C69.8613281,84.0214844 68.6660156,85.7089844 66.6269531,85.7089844 C64.6054688,85.7089844 63.4101562,84.0039062 63.4101562,81.1210938 C63.4101562,78.2734375 64.6230469,76.5332031 66.6269531,76.5332031 L66.6269531,76.5332031 Z M100.21875,71.2421875 L93.0117188,71.2421875 L93.0117188,82.2988281 C93.0117188,84.2675781 91.7285156,85.5683594 90.0410156,85.5683594 C88.2832031,85.5683594 86.9648438,84.4257812 86.9648438,82.2988281 L86.9648438,71.2421875 L79.7578125,71.2421875 L79.7578125,83.9160156 C79.7578125,88.609375 82.8515625,91.3867188 87.0878906,91.3867188 C90.0410156,91.3867188 92.2558594,89.8046875 93.046875,87.1328125 L93.1875,87.1328125 L93.1875,91 L100.21875,91 L100.21875,71.2421875 Z M112.154297,84.7421875 L115.037109,91 L122.824219,91 L117.076172,81.0507812 L122.824219,71.2421875 L115.072266,71.2421875 L112.59375,77.2890625 L112.453125,77.2890625 L109.957031,71.2421875 L101.800781,71.2421875 L107.548828,81.1914062 L101.818359,91 L109.236328,91 L112.013672,84.7421875 L112.154297,84.7421875 Z M81.9023438,121 L81.9023438,114.355469 L83.8886719,111.683594 L89.4257812,121 L98.0917969,121 L89.3554688,106.902344 L97.7050781,95.6347656 L89.8828125,95.6347656 L82.0429688,106.392578 L81.9023438,106.392578 L81.9023438,95.6347656 L74.4492188,95.6347656 L74.4492188,121 L81.9023438,121 Z M99.4980469,121 L106.705078,121 L106.705078,101.242188 L99.4980469,101.242188 L99.4980469,121 Z M103.101562,100.082031 C105.087891,100.082031 106.705078,98.640625 106.705078,96.6542969 C106.705078,94.6679688 105.087891,93.2265625 103.101562,93.2265625 C101.115234,93.2265625 99.4980469,94.6679688 99.4980469,96.6542969 C99.4980469,98.640625 101.115234,100.082031 103.101562,100.082031 L103.101562,100.082031 Z M111.257812,96.9003906 L111.257812,101.242188 L108.638672,101.242188 L108.638672,106.480469 L111.257812,106.480469 L111.257812,115.498047 C111.257812,119.400391 113.4375,121 118.957031,121 C120.328125,121 121.259766,120.876953 121.945312,120.736328 L121.945312,115.726562 C121.523438,115.796875 121.242188,115.814453 120.697266,115.814453 C119.185547,115.814453 118.464844,115.164062 118.464844,113.916016 L118.464844,106.480469 L121.945312,106.480469 L121.945312,101.242188 L118.464844,101.242188 L118.464844,96.9003906 L111.257812,96.9003906 Z" id="Redux" fill="#FFFFFF" sketch:type="MSShapeGroup"></path>
            <path d="M151.681641,72.4199219 L153.537109,72.4199219 L145.861328,88.8554688 L143.996094,88.8554688 L151.681641,72.4199219 Z M163.722656,72.4199219 L165.578125,72.4199219 L157.902344,88.8554688 L156.037109,88.8554688 L163.722656,72.4199219 Z M187.501953,81.4433594 C187.501953,80.0956964 187.282229,79.0719436 186.842773,78.3720703 C186.403318,77.672197 185.763676,77.3222656 184.923828,77.3222656 C184.044917,77.3222656 183.374351,77.672197 182.912109,78.3720703 C182.449867,79.0719436 182.21875,80.0956964 182.21875,81.4433594 C182.21875,82.7910224 182.451495,83.8180303 182.916992,84.5244141 C183.382489,85.2307978 184.057938,85.5839844 184.943359,85.5839844 C185.770186,85.5839844 186.403318,85.2291702 186.842773,84.5195312 C187.282229,83.8098923 187.501953,82.7845119 187.501953,81.4433594 L187.501953,81.4433594 Z M189.298828,86.296875 C189.298828,87.9375082 188.911462,89.1809854 188.136719,90.0273438 C187.361975,90.8737021 186.222664,91.296875 184.71875,91.296875 C184.223956,91.296875 183.706383,91.2513025 183.166016,91.1601562 C182.625648,91.06901 182.085289,90.9355478 181.544922,90.7597656 L181.544922,88.9824219 C182.182946,89.2819025 182.762367,89.5032545 183.283203,89.6464844 C183.804039,89.7897143 184.28255,89.8613281 184.71875,89.8613281 C185.688807,89.8613281 186.39518,89.5976589 186.837891,89.0703125 C187.280601,88.5429661 187.501953,87.7063859 187.501953,86.5605469 L187.501953,86.4824219 L187.501953,85.2617188 C187.215493,85.873701 186.824872,86.3294256 186.330078,86.6289062 C185.835284,86.9283869 185.233076,87.078125 184.523438,87.078125 C183.247389,87.078125 182.228519,86.5670624 181.466797,85.5449219 C180.705074,84.5227813 180.324219,83.1556075 180.324219,81.4433594 C180.324219,79.7246008 180.705074,78.3541718 181.466797,77.3320312 C182.228519,76.3098907 183.247389,75.7988281 184.523438,75.7988281 C185.226566,75.7988281 185.822263,75.9388007 186.310547,76.21875 C186.798831,76.4986993 187.195962,76.9316377 187.501953,77.5175781 L187.501953,76.1015625 L189.298828,76.1015625 L189.298828,86.296875 Z M194.25,76.1015625 L198.849609,76.1015625 L198.849609,85.6035156 L202.414062,85.6035156 L202.414062,87 L193.488281,87 L193.488281,85.6035156 L197.052734,85.6035156 L197.052734,77.4980469 L194.25,77.4980469 L194.25,76.1015625 Z M197.052734,71.8535156 L198.849609,71.8535156 L198.849609,74.1191406 L197.052734,74.1191406 L197.052734,71.8535156 Z M209.201172,72.9570312 L209.201172,76.0625 L213.283203,76.0625 L213.283203,77.4589844 L209.201172,77.4589844 L209.201172,83.3964844 C209.201172,84.2037801 209.354165,84.7669255 209.660156,85.0859375 C209.966147,85.4049495 210.499996,85.5644531 211.261719,85.5644531 L213.283203,85.5644531 L213.283203,87 L211.085938,87 C209.738275,87 208.787763,86.7298204 208.234375,86.1894531 C207.680987,85.6490858 207.404297,84.7181056 207.404297,83.3964844 L207.404297,77.4589844 L204.484375,77.4589844 L204.484375,76.0625 L207.404297,76.0625 L207.404297,72.9570312 L209.201172,72.9570312 Z M225.509766,80.2226562 L225.509766,87 L223.703125,87 L223.703125,80.2226562 C223.703125,79.2395784 223.530601,78.5169294 223.185547,78.0546875 C222.840493,77.5924456 222.300134,77.3613281 221.564453,77.3613281 C220.724605,77.3613281 220.078453,77.6591767 219.625977,78.2548828 C219.1735,78.8505889 218.947266,79.7050726 218.947266,80.8183594 L218.947266,87 L217.150391,87 L217.150391,71.8046875 L218.947266,71.8046875 L218.947266,77.703125 C219.266278,77.0781219 219.699216,76.6044938 220.246094,76.2822266 C220.792971,75.9599593 221.440751,75.7988281 222.189453,75.7988281 C223.30274,75.7988281 224.134437,76.1650354 224.68457,76.8974609 C225.234703,77.6298865 225.509766,78.7382738 225.509766,80.2226562 L225.509766,80.2226562 Z M229.191406,82.859375 L229.191406,76.0820312 L230.988281,76.0820312 L230.988281,82.859375 C230.988281,83.8424528 231.162433,84.5651019 231.510742,85.0273438 C231.859051,85.4895856 232.397783,85.7207031 233.126953,85.7207031 C233.973312,85.7207031 234.621092,85.4228545 235.070312,84.8271484 C235.519533,84.2314423 235.744141,83.3769587 235.744141,82.2636719 L235.744141,76.0820312 L237.550781,76.0820312 L237.550781,87 L235.744141,87 L235.744141,85.359375 C235.425129,85.9908886 234.990563,86.4693994 234.44043,86.7949219 C233.890297,87.1204443 233.2474,87.2832031 232.511719,87.2832031 C231.391921,87.2832031 230.558596,86.9169958 230.011719,86.1845703 C229.464841,85.4521448 229.191406,84.3437574 229.191406,82.859375 L229.191406,82.859375 Z M248.292969,81.5410156 C248.292969,80.1477795 248.071617,79.0963577 247.628906,78.3867188 C247.186196,77.6770798 246.531905,77.3222656 245.666016,77.3222656 C244.793615,77.3222656 244.132815,77.6787074 243.683594,78.3916016 C243.234373,79.1044958 243.009766,80.1542899 243.009766,81.5410156 C243.009766,82.9212309 243.234373,83.9693975 243.683594,84.6855469 C244.132815,85.4016963 244.793615,85.7597656 245.666016,85.7597656 C246.531905,85.7597656 247.186196,85.4049515 247.628906,84.6953125 C248.071617,83.9856735 248.292969,82.9342518 248.292969,81.5410156 L248.292969,81.5410156 Z M243.009766,77.4589844 C243.296225,76.9251275 243.691729,76.5149754 244.196289,76.2285156 C244.700849,75.9420559 245.285153,75.7988281 245.949219,75.7988281 C247.264329,75.7988281 248.299475,76.305008 249.054688,77.3173828 C249.8099,78.3297577 250.1875,79.7246005 250.1875,81.5019531 C250.1875,83.3053476 249.808272,84.7197214 249.049805,85.7451172 C248.291337,86.7705129 247.251309,87.2832031 245.929688,87.2832031 C245.278643,87.2832031 244.704104,87.141603 244.206055,86.8583984 C243.708005,86.5751939 243.309246,86.1634142 243.009766,85.6230469 L243.009766,87 L241.212891,87 L241.212891,71.8046875 L243.009766,71.8046875 L243.009766,77.4589844 Z M272.638672,71.8925781 L272.638672,77.8691406 L270.451172,77.8691406 L270.451172,71.8925781 L272.638672,71.8925781 Z M267.433594,71.8925781 L267.433594,77.8691406 L265.246094,77.8691406 L265.246094,71.8925781 L267.433594,71.8925781 Z M282.873047,80.1152344 C283.380862,80.2454434 283.8138,80.4912091 284.171875,80.8525391 C284.52995,81.213869 284.975909,81.9348904 285.509766,83.015625 L287.492188,87 L285.373047,87 L283.634766,83.3183594 C283.133461,82.2701771 282.682619,81.5947281 282.282227,81.2919922 C281.881834,80.9892563 281.359378,80.8378906 280.714844,80.8378906 L278.830078,80.8378906 L278.830078,87 L276.847656,87 L276.847656,72.4199219 L280.910156,72.4199219 C282.511727,72.4199219 283.738928,72.7812464 284.591797,73.5039062 C285.444666,74.2265661 285.871094,75.2714775 285.871094,76.6386719 C285.871094,77.6022184 285.609052,78.3883433 285.084961,78.9970703 C284.56087,79.6057973 283.823572,79.9785149 282.873047,80.1152344 L282.873047,80.1152344 Z M278.830078,74.0410156 L278.830078,79.2167969 L280.988281,79.2167969 C281.932296,79.2167969 282.635414,79.0052104 283.097656,78.5820312 C283.559898,78.1588521 283.791016,77.5110721 283.791016,76.6386719 C283.791016,75.7988239 283.54525,75.1559267 283.053711,74.7099609 C282.562172,74.2639952 281.847661,74.0410156 280.910156,74.0410156 L278.830078,74.0410156 Z M298.429688,80.6328125 L298.429688,81.5117188 L290.646484,81.5117188 L290.646484,81.5703125 C290.594401,83.0612054 290.879229,84.1321582 291.500977,84.7832031 C292.122724,85.434248 292.999994,85.7597656 294.132812,85.7597656 C294.705732,85.7597656 295.304684,85.6686207 295.929688,85.4863281 C296.554691,85.3040355 297.222002,85.0273456 297.931641,84.65625 L297.931641,86.4433594 C297.248043,86.7233087 296.58887,86.9332675 295.954102,87.0732422 C295.319333,87.2132168 294.705732,87.2832031 294.113281,87.2832031 C292.414054,87.2832031 291.085942,86.7737681 290.128906,85.7548828 C289.17187,84.7359975 288.693359,83.3313892 288.693359,81.5410156 C288.693359,79.7962152 289.162105,78.403 290.099609,77.3613281 C291.037114,76.3196563 292.287102,75.7988281 293.849609,75.7988281 C295.242846,75.7988281 296.341467,76.2708286 297.145508,77.2148438 C297.949548,78.1588589 298.377604,79.2981704 298.429688,80.6328125 L298.429688,80.6328125 Z M296.632812,80.1054688 C296.554687,79.3502566 296.279625,78.6975939 295.807617,78.1474609 C295.33561,77.597328 294.656905,77.3222656 293.771484,77.3222656 C292.905595,77.3222656 292.192711,77.6087211 291.632812,78.1816406 C291.072914,78.7545602 290.766927,79.399085 290.714844,80.1152344 L296.632812,80.1054688 Z M307.912109,77.4589844 L307.912109,71.8046875 L309.708984,71.8046875 L309.708984,87 L307.912109,87 L307.912109,85.6230469 C307.612629,86.1634142 307.21387,86.5751939 306.71582,86.8583984 C306.217771,87.141603 305.643232,87.2832031 304.992188,87.2832031 C303.670566,87.2832031 302.630538,86.7705129 301.87207,85.7451172 C301.113603,84.7197214 300.734375,83.3053476 300.734375,81.5019531 C300.734375,79.7246005 301.115231,78.3297577 301.876953,77.3173828 C302.638676,76.305008 303.677077,75.7988281 304.992188,75.7988281 C305.649743,75.7988281 306.229164,75.9404283 306.730469,76.2236328 C307.231773,76.5068374 307.62565,76.9186171 307.912109,77.4589844 L307.912109,77.4589844 Z M302.628906,81.5410156 C302.628906,82.9342518 302.850258,83.9856735 303.292969,84.6953125 C303.735679,85.4049515 304.38997,85.7597656 305.255859,85.7597656 C306.121749,85.7597656 306.780922,85.4016963 307.233398,84.6855469 C307.685875,83.9693975 307.912109,82.9212309 307.912109,81.5410156 C307.912109,80.1542899 307.685875,79.1044958 307.233398,78.3916016 C306.780922,77.6787074 306.121749,77.3222656 305.255859,77.3222656 C304.38997,77.3222656 303.735679,77.6770798 303.292969,78.3867188 C302.850258,79.0963577 302.628906,80.1477795 302.628906,81.5410156 L302.628906,81.5410156 Z M313.478516,82.859375 L313.478516,76.0820312 L315.275391,76.0820312 L315.275391,82.859375 C315.275391,83.8424528 315.449543,84.5651019 315.797852,85.0273438 C316.146161,85.4895856 316.684892,85.7207031 317.414062,85.7207031 C318.260421,85.7207031 318.908201,85.4228545 319.357422,84.8271484 C319.806643,84.2314423 320.03125,83.3769587 320.03125,82.2636719 L320.03125,76.0820312 L321.837891,76.0820312 L321.837891,87 L320.03125,87 L320.03125,85.359375 C319.712238,85.9908886 319.277672,86.4693994 318.727539,86.7949219 C318.177406,87.1204443 317.534509,87.2832031 316.798828,87.2832031 C315.679031,87.2832031 314.845706,86.9169958 314.298828,86.1845703 C313.75195,85.4521448 313.478516,84.3437574 313.478516,82.859375 L313.478516,82.859375 Z M334.533203,76.0625 L330.617188,81.296875 L334.914062,87 L332.833984,87 L329.630859,82.6152344 L326.4375,87 L324.357422,87 L328.654297,81.296875 L324.738281,76.0625 L326.730469,76.0625 L329.630859,80.0175781 L332.511719,76.0625 L334.533203,76.0625 Z M336.994141,72.4199219 L338.976562,72.4199219 L338.976562,78.9042969 L345.138672,72.4199219 L347.453125,72.4199219 L341.779297,78.3769531 L347.619141,87 L345.236328,87 L340.480469,79.6953125 L338.976562,81.296875 L338.976562,87 L336.994141,87 L336.994141,72.4199219 Z M350.783203,76.1015625 L355.382812,76.1015625 L355.382812,85.6035156 L358.947266,85.6035156 L358.947266,87 L350.021484,87 L350.021484,85.6035156 L353.585938,85.6035156 L353.585938,77.4980469 L350.783203,77.4980469 L350.783203,76.1015625 Z M353.585938,71.8535156 L355.382812,71.8535156 L355.382812,74.1191406 L353.585938,74.1191406 L353.585938,71.8535156 Z M365.734375,72.9570312 L365.734375,76.0625 L369.816406,76.0625 L369.816406,77.4589844 L365.734375,77.4589844 L365.734375,83.3964844 C365.734375,84.2037801 365.887368,84.7669255 366.193359,85.0859375 C366.49935,85.4049495 367.033199,85.5644531 367.794922,85.5644531 L369.816406,85.5644531 L369.816406,87 L367.619141,87 C366.271478,87 365.320966,86.7298204 364.767578,86.1894531 C364.21419,85.6490858 363.9375,84.7181056 363.9375,83.3964844 L363.9375,77.4589844 L361.017578,77.4589844 L361.017578,76.0625 L363.9375,76.0625 L363.9375,72.9570312 L365.734375,72.9570312 Z M380.460938,72.4199219 L382.316406,72.4199219 L374.640625,88.8554688 L372.775391,88.8554688 L380.460938,72.4199219 Z M391.242188,80.1152344 C391.750003,80.2454434 392.182941,80.4912091 392.541016,80.8525391 C392.89909,81.213869 393.345049,81.9348904 393.878906,83.015625 L395.861328,87 L393.742188,87 L392.003906,83.3183594 C391.502602,82.2701771 391.05176,81.5947281 390.651367,81.2919922 C390.250975,80.9892563 389.728519,80.8378906 389.083984,80.8378906 L387.199219,80.8378906 L387.199219,87 L385.216797,87 L385.216797,72.4199219 L389.279297,72.4199219 C390.880867,72.4199219 392.108069,72.7812464 392.960938,73.5039062 C393.813806,74.2265661 394.240234,75.2714775 394.240234,76.6386719 C394.240234,77.6022184 393.978193,78.3883433 393.454102,78.9970703 C392.93001,79.6057973 392.192713,79.9785149 391.242188,80.1152344 L391.242188,80.1152344 Z M387.199219,74.0410156 L387.199219,79.2167969 L389.357422,79.2167969 C390.301437,79.2167969 391.004555,79.0052104 391.466797,78.5820312 C391.929039,78.1588521 392.160156,77.5110721 392.160156,76.6386719 C392.160156,75.7988239 391.91439,75.1559267 391.422852,74.7099609 C390.931313,74.2639952 390.216802,74.0410156 389.279297,74.0410156 L387.199219,74.0410156 Z M406.798828,80.6328125 L406.798828,81.5117188 L399.015625,81.5117188 L399.015625,81.5703125 C398.963541,83.0612054 399.248369,84.1321582 399.870117,84.7832031 C400.491865,85.434248 401.369135,85.7597656 402.501953,85.7597656 C403.074873,85.7597656 403.673825,85.6686207 404.298828,85.4863281 C404.923831,85.3040355 405.591142,85.0273456 406.300781,84.65625 L406.300781,86.4433594 C405.617184,86.7233087 404.958011,86.9332675 404.323242,87.0732422 C403.688473,87.2132168 403.074873,87.2832031 402.482422,87.2832031 C400.783195,87.2832031 399.455083,86.7737681 398.498047,85.7548828 C397.541011,84.7359975 397.0625,83.3313892 397.0625,81.5410156 C397.0625,79.7962152 397.531245,78.403 398.46875,77.3613281 C399.406255,76.3196563 400.656242,75.7988281 402.21875,75.7988281 C403.611986,75.7988281 404.710608,76.2708286 405.514648,77.2148438 C406.318689,78.1588589 406.746745,79.2981704 406.798828,80.6328125 L406.798828,80.6328125 Z M405.001953,80.1054688 C404.923828,79.3502566 404.648765,78.6975939 404.176758,78.1474609 C403.70475,77.597328 403.026046,77.3222656 402.140625,77.3222656 C401.274735,77.3222656 400.561852,77.6087211 400.001953,78.1816406 C399.442054,78.7545602 399.136068,79.399085 399.083984,80.1152344 L405.001953,80.1054688 Z M416.28125,77.4589844 L416.28125,71.8046875 L418.078125,71.8046875 L418.078125,87 L416.28125,87 L416.28125,85.6230469 C415.981769,86.1634142 415.58301,86.5751939 415.084961,86.8583984 C414.586912,87.141603 414.012373,87.2832031 413.361328,87.2832031 C412.039707,87.2832031 410.999678,86.7705129 410.241211,85.7451172 C409.482744,84.7197214 409.103516,83.3053476 409.103516,81.5019531 C409.103516,79.7246005 409.484371,78.3297577 410.246094,77.3173828 C411.007816,76.305008 412.046217,75.7988281 413.361328,75.7988281 C414.018883,75.7988281 414.598305,75.9404283 415.099609,76.2236328 C415.600914,76.5068374 415.99479,76.9186171 416.28125,77.4589844 L416.28125,77.4589844 Z M410.998047,81.5410156 C410.998047,82.9342518 411.219399,83.9856735 411.662109,84.6953125 C412.10482,85.4049515 412.75911,85.7597656 413.625,85.7597656 C414.49089,85.7597656 415.150063,85.4016963 415.602539,84.6855469 C416.055015,83.9693975 416.28125,82.9212309 416.28125,81.5410156 C416.28125,80.1542899 416.055015,79.1044958 415.602539,78.3916016 C415.150063,77.6787074 414.49089,77.3222656 413.625,77.3222656 C412.75911,77.3222656 412.10482,77.6770798 411.662109,78.3867188 C411.219399,79.0963577 410.998047,80.1477795 410.998047,81.5410156 L410.998047,81.5410156 Z M421.847656,82.859375 L421.847656,76.0820312 L423.644531,76.0820312 L423.644531,82.859375 C423.644531,83.8424528 423.818683,84.5651019 424.166992,85.0273438 C424.515301,85.4895856 425.054033,85.7207031 425.783203,85.7207031 C426.629562,85.7207031 427.277342,85.4228545 427.726562,84.8271484 C428.175783,84.2314423 428.400391,83.3769587 428.400391,82.2636719 L428.400391,76.0820312 L430.207031,76.0820312 L430.207031,87 L428.400391,87 L428.400391,85.359375 C428.081379,85.9908886 427.646813,86.4693994 427.09668,86.7949219 C426.546547,87.1204443 425.90365,87.2832031 425.167969,87.2832031 C424.048171,87.2832031 423.214846,86.9169958 422.667969,86.1845703 C422.121091,85.4521448 421.847656,84.3437574 421.847656,82.859375 L421.847656,82.859375 Z M442.902344,76.0625 L438.986328,81.296875 L443.283203,87 L441.203125,87 L438,82.6152344 L434.806641,87 L432.726562,87 L437.023438,81.296875 L433.107422,76.0625 L435.099609,76.0625 L438,80.0175781 L440.880859,76.0625 L442.902344,76.0625 Z M445.363281,72.4199219 L447.345703,72.4199219 L447.345703,78.9042969 L453.507812,72.4199219 L455.822266,72.4199219 L450.148438,78.3769531 L455.988281,87 L453.605469,87 L448.849609,79.6953125 L447.345703,81.296875 L447.345703,87 L445.363281,87 L445.363281,72.4199219 Z M459.152344,76.1015625 L463.751953,76.1015625 L463.751953,85.6035156 L467.316406,85.6035156 L467.316406,87 L458.390625,87 L458.390625,85.6035156 L461.955078,85.6035156 L461.955078,77.4980469 L459.152344,77.4980469 L459.152344,76.1015625 Z M461.955078,71.8535156 L463.751953,71.8535156 L463.751953,74.1191406 L461.955078,74.1191406 L461.955078,71.8535156 Z M474.103516,72.9570312 L474.103516,76.0625 L478.185547,76.0625 L478.185547,77.4589844 L474.103516,77.4589844 L474.103516,83.3964844 C474.103516,84.2037801 474.256509,84.7669255 474.5625,85.0859375 C474.868491,85.4049495 475.40234,85.5644531 476.164062,85.5644531 L478.185547,85.5644531 L478.185547,87 L475.988281,87 C474.640618,87 473.690107,86.7298204 473.136719,86.1894531 C472.583331,85.6490858 472.306641,84.7181056 472.306641,83.3964844 L472.306641,77.4589844 L469.386719,77.4589844 L469.386719,76.0625 L472.306641,76.0625 L472.306641,72.9570312 L474.103516,72.9570312 Z M489.376953,71.8925781 L489.376953,77.8691406 L487.189453,77.8691406 L487.189453,71.8925781 L489.376953,71.8925781 Z M484.171875,71.8925781 L484.171875,77.8691406 L481.984375,77.8691406 L481.984375,71.8925781 L484.171875,71.8925781 Z" id="//-github-&quot;ReduxKit/" fill="#919191" sketch:type="MSShapeGroup"></path>
            <path d="M153.136719,111.677734 C153.136719,110.837886 152.928387,110.165693 152.511719,109.661133 C152.09505,109.156573 151.538415,108.904297 150.841797,108.904297 C150.145179,108.904297 149.586916,109.156573 149.166992,109.661133 C148.747068,110.165693 148.537109,110.837886 148.537109,111.677734 C148.537109,112.524093 148.747068,113.199542 149.166992,113.704102 C149.586916,114.208661 150.145179,114.460938 150.841797,114.460938 C151.538415,114.460938 152.09505,114.208661 152.511719,113.704102 C152.928387,113.199542 153.136719,112.524093 153.136719,111.677734 L153.136719,111.677734 Z M154.503906,115.681641 L153.097656,115.681641 L153.097656,114.597656 C152.85677,115.007815 152.523114,115.323567 152.09668,115.544922 C151.670245,115.766277 151.190107,115.876953 150.65625,115.876953 C149.608068,115.876953 148.740563,115.483077 148.053711,114.695312 C147.366859,113.907548 147.023438,112.901699 147.023438,111.677734 C147.023438,110.45377 147.366859,109.447921 148.053711,108.660156 C148.740563,107.872392 149.608068,107.478516 150.65625,107.478516 C151.177086,107.478516 151.655597,107.592447 152.091797,107.820312 C152.527997,108.048178 152.86328,108.360675 153.097656,108.757812 L153.097656,108.142578 C153.097656,107.126948 152.811201,106.309899 152.238281,105.691406 C151.665362,105.072914 150.906906,104.763672 149.962891,104.763672 C148.36132,104.763672 147.086919,105.387038 146.139648,106.633789 C145.192378,107.88054 144.71875,109.568349 144.71875,111.697266 C144.71875,113.839203 145.255854,115.544916 146.330078,116.814453 C147.404302,118.083991 148.875642,118.722005 150.744141,118.728516 C151.095705,118.780599 151.590492,118.806641 152.228516,118.806641 C152.86654,118.806641 153.436195,118.79362 153.9375,118.767578 L153.9375,120.173828 C153.514321,120.20638 152.969079,120.224284 152.301758,120.227539 C151.634437,120.230794 151.115236,120.203125 150.744141,120.144531 C148.485015,120.125 146.673509,119.356778 145.30957,117.839844 C143.945631,116.322909 143.263672,114.275404 143.263672,111.697266 C143.263672,109.15819 143.875645,107.136726 145.099609,105.632812 C146.323574,104.128899 147.964182,103.376953 150.021484,103.376953 C151.382168,103.376953 152.469397,103.809892 153.283203,104.675781 C154.097009,105.541671 154.503906,106.703769 154.503906,108.162109 L154.503906,115.681641 Z M158.126953,106.101562 L162.726562,106.101562 L162.726562,115.603516 L166.291016,115.603516 L166.291016,117 L157.365234,117 L157.365234,115.603516 L160.929688,115.603516 L160.929688,107.498047 L158.126953,107.498047 L158.126953,106.101562 Z M160.929688,101.853516 L162.726562,101.853516 L162.726562,104.119141 L160.929688,104.119141 L160.929688,101.853516 Z M173.683594,107.175781 C173.904949,106.707029 174.186522,106.360353 174.52832,106.135742 C174.870119,105.911132 175.281899,105.798828 175.763672,105.798828 C176.642583,105.798828 177.262694,106.138994 177.624023,106.819336 C177.985353,107.499678 178.166016,108.78059 178.166016,110.662109 L178.166016,117 L176.525391,117 L176.525391,110.740234 C176.525391,109.197258 176.439128,108.238609 176.266602,107.864258 C176.094075,107.489907 175.77995,107.302734 175.324219,107.302734 C174.803383,107.302734 174.446941,107.502928 174.254883,107.90332 C174.062825,108.303713 173.966797,109.249342 173.966797,110.740234 L173.966797,117 L172.326172,117 L172.326172,110.740234 C172.326172,109.177727 172.233399,108.214195 172.047852,107.849609 C171.862304,107.485024 171.528648,107.302734 171.046875,107.302734 C170.571612,107.302734 170.241212,107.502928 170.055664,107.90332 C169.870116,108.303713 169.777344,109.249342 169.777344,110.740234 L169.777344,117 L168.146484,117 L168.146484,106.0625 L169.777344,106.0625 L169.777344,107 C169.992189,106.609373 170.260741,106.311524 170.583008,106.106445 C170.905275,105.901366 171.271482,105.798828 171.681641,105.798828 C172.176435,105.798828 172.588215,105.912759 172.916992,106.140625 C173.24577,106.368491 173.501301,106.713539 173.683594,107.175781 L173.683594,107.175781 Z M182.785156,115.623047 L182.785156,121.160156 L180.978516,121.160156 L180.978516,106.0625 L182.785156,106.0625 L182.785156,107.458984 C183.084637,106.918617 183.483396,106.506837 183.981445,106.223633 C184.479495,105.940428 185.054033,105.798828 185.705078,105.798828 C187.026699,105.798828 188.063473,106.309891 188.81543,107.332031 C189.567387,108.354172 189.943359,109.770173 189.943359,111.580078 C189.943359,113.357431 189.565759,114.752274 188.810547,115.764648 C188.055335,116.777023 187.020189,117.283203 185.705078,117.283203 C185.041012,117.283203 184.459963,117.141603 183.961914,116.858398 C183.463865,116.575194 183.071616,116.163414 182.785156,115.623047 L182.785156,115.623047 Z M188.058594,111.541016 C188.058594,110.147779 187.838869,109.096358 187.399414,108.386719 C186.959959,107.67708 186.307296,107.322266 185.441406,107.322266 C184.569006,107.322266 183.908205,107.678707 183.458984,108.391602 C183.009763,109.104496 182.785156,110.15429 182.785156,111.541016 C182.785156,112.921231 183.009763,113.969397 183.458984,114.685547 C183.908205,115.401696 184.569006,115.759766 185.441406,115.759766 C186.307296,115.759766 186.959959,115.404951 187.399414,114.695312 C187.838869,113.985674 188.058594,112.934252 188.058594,111.541016 L188.058594,111.541016 Z M197.179688,107.322266 C196.268225,107.322266 195.578127,107.67708 195.109375,108.386719 C194.640623,109.096358 194.40625,110.147779 194.40625,111.541016 C194.40625,112.927741 194.640623,113.977535 195.109375,114.69043 C195.578127,115.403324 196.268225,115.759766 197.179688,115.759766 C198.097661,115.759766 198.791013,115.403324 199.259766,114.69043 C199.728518,113.977535 199.962891,112.927741 199.962891,111.541016 C199.962891,110.147779 199.728518,109.096358 199.259766,108.386719 C198.791013,107.67708 198.097661,107.322266 197.179688,107.322266 L197.179688,107.322266 Z M197.179688,105.798828 C198.696622,105.798828 199.857092,106.29036 200.661133,107.273438 C201.465173,108.256515 201.867188,109.679027 201.867188,111.541016 C201.867188,113.409515 201.466801,114.833654 200.666016,115.813477 C199.86523,116.793299 198.703133,117.283203 197.179688,117.283203 C195.662753,117.283203 194.50391,116.793299 193.703125,115.813477 C192.90234,114.833654 192.501953,113.409515 192.501953,111.541016 C192.501953,109.679027 192.90234,108.256515 193.703125,107.273438 C194.50391,106.29036 195.662753,105.798828 197.179688,105.798828 L197.179688,105.798828 Z M214.484375,108.318359 C214.100258,108.018879 213.709637,107.800782 213.3125,107.664062 C212.915363,107.527343 212.479169,107.458984 212.003906,107.458984 C210.884109,107.458984 210.027998,107.810543 209.435547,108.513672 C208.843096,109.2168 208.546875,110.232415 208.546875,111.560547 L208.546875,117 L206.740234,117 L206.740234,106.0625 L208.546875,106.0625 L208.546875,108.201172 C208.846356,107.426428 209.306963,106.832359 209.928711,106.418945 C210.550459,106.005532 211.287756,105.798828 212.140625,105.798828 C212.583336,105.798828 212.996743,105.854166 213.380859,105.964844 C213.764976,106.075521 214.132811,106.248046 214.484375,106.482422 L214.484375,108.318359 Z M221.242188,102.957031 L221.242188,106.0625 L225.324219,106.0625 L225.324219,107.458984 L221.242188,107.458984 L221.242188,113.396484 C221.242188,114.20378 221.395181,114.766925 221.701172,115.085938 C222.007163,115.40495 222.541012,115.564453 223.302734,115.564453 L225.324219,115.564453 L225.324219,117 L223.126953,117 C221.77929,117 220.828779,116.72982 220.275391,116.189453 C219.722002,115.649086 219.445312,114.718106 219.445312,113.396484 L219.445312,107.458984 L216.525391,107.458984 L216.525391,106.0625 L219.445312,106.0625 L219.445312,102.957031 L221.242188,102.957031 Z M246.75,110.115234 C247.257815,110.245443 247.690753,110.491209 248.048828,110.852539 C248.406903,111.213869 248.852862,111.93489 249.386719,113.015625 L251.369141,117 L249.25,117 L247.511719,113.318359 C247.010414,112.270177 246.559572,111.594728 246.15918,111.291992 C245.758787,110.989256 245.236331,110.837891 244.591797,110.837891 L242.707031,110.837891 L242.707031,117 L240.724609,117 L240.724609,102.419922 L244.787109,102.419922 C246.38868,102.419922 247.615881,102.781246 248.46875,103.503906 C249.321619,104.226566 249.748047,105.271478 249.748047,106.638672 C249.748047,107.602218 249.486005,108.388343 248.961914,108.99707 C248.437823,109.605797 247.700526,109.978515 246.75,110.115234 L246.75,110.115234 Z M242.707031,104.041016 L242.707031,109.216797 L244.865234,109.216797 C245.80925,109.216797 246.512367,109.00521 246.974609,108.582031 C247.436851,108.158852 247.667969,107.511072 247.667969,106.638672 C247.667969,105.798824 247.422203,105.155927 246.930664,104.709961 C246.439125,104.263995 245.724614,104.041016 244.787109,104.041016 L242.707031,104.041016 Z M262.306641,110.632812 L262.306641,111.511719 L254.523438,111.511719 L254.523438,111.570312 C254.471354,113.061205 254.756182,114.132158 255.37793,114.783203 C255.999678,115.434248 256.876947,115.759766 258.009766,115.759766 C258.582685,115.759766 259.181637,115.668621 259.806641,115.486328 C260.431644,115.304036 261.098955,115.027346 261.808594,114.65625 L261.808594,116.443359 C261.124997,116.723309 260.465823,116.933268 259.831055,117.073242 C259.196286,117.213217 258.582685,117.283203 257.990234,117.283203 C256.291007,117.283203 254.962895,116.773768 254.005859,115.754883 C253.048823,114.735998 252.570312,113.331389 252.570312,111.541016 C252.570312,109.796215 253.039058,108.403 253.976562,107.361328 C254.914067,106.319656 256.164055,105.798828 257.726562,105.798828 C259.119799,105.798828 260.21842,106.270829 261.022461,107.214844 C261.826501,108.158859 262.254557,109.29817 262.306641,110.632812 L262.306641,110.632812 Z M260.509766,110.105469 C260.43164,109.350257 260.156578,108.697594 259.68457,108.147461 C259.212563,107.597328 258.533859,107.322266 257.648438,107.322266 C256.782548,107.322266 256.069664,107.608721 255.509766,108.181641 C254.949867,108.75456 254.64388,109.399085 254.591797,110.115234 L260.509766,110.105469 Z M271.789062,107.458984 L271.789062,101.804688 L273.585938,101.804688 L273.585938,117 L271.789062,117 L271.789062,115.623047 C271.489582,116.163414 271.090823,116.575194 270.592773,116.858398 C270.094724,117.141603 269.520186,117.283203 268.869141,117.283203 C267.547519,117.283203 266.507491,116.770513 265.749023,115.745117 C264.990556,114.719721 264.611328,113.305348 264.611328,111.501953 C264.611328,109.7246 264.992184,108.329758 265.753906,107.317383 C266.515629,106.305008 267.55403,105.798828 268.869141,105.798828 C269.526696,105.798828 270.106117,105.940428 270.607422,106.223633 C271.108726,106.506837 271.502603,106.918617 271.789062,107.458984 L271.789062,107.458984 Z M266.505859,111.541016 C266.505859,112.934252 266.727211,113.985674 267.169922,114.695312 C267.612632,115.404951 268.266923,115.759766 269.132812,115.759766 C269.998702,115.759766 270.657875,115.401696 271.110352,114.685547 C271.562828,113.969397 271.789062,112.921231 271.789062,111.541016 C271.789062,110.15429 271.562828,109.104496 271.110352,108.391602 C270.657875,107.678707 269.998702,107.322266 269.132812,107.322266 C268.266923,107.322266 267.612632,107.67708 267.169922,108.386719 C266.727211,109.096358 266.505859,110.147779 266.505859,111.541016 L266.505859,111.541016 Z M277.355469,112.859375 L277.355469,106.082031 L279.152344,106.082031 L279.152344,112.859375 C279.152344,113.842453 279.326496,114.565102 279.674805,115.027344 C280.023114,115.489586 280.561845,115.720703 281.291016,115.720703 C282.137374,115.720703 282.785154,115.422855 283.234375,114.827148 C283.683596,114.231442 283.908203,113.376959 283.908203,112.263672 L283.908203,106.082031 L285.714844,106.082031 L285.714844,117 L283.908203,117 L283.908203,115.359375 C283.589191,115.990889 283.154625,116.469399 282.604492,116.794922 C282.054359,117.120444 281.411462,117.283203 280.675781,117.283203 C279.555984,117.283203 278.722659,116.916996 278.175781,116.18457 C277.628904,115.452145 277.355469,114.343757 277.355469,112.859375 L277.355469,112.859375 Z M298.410156,106.0625 L294.494141,111.296875 L298.791016,117 L296.710938,117 L293.507812,112.615234 L290.314453,117 L288.234375,117 L292.53125,111.296875 L288.615234,106.0625 L290.607422,106.0625 L293.507812,110.017578 L296.388672,106.0625 L298.410156,106.0625 Z M300.871094,102.419922 L302.853516,102.419922 L302.853516,108.904297 L309.015625,102.419922 L311.330078,102.419922 L305.65625,108.376953 L311.496094,117 L309.113281,117 L304.357422,109.695312 L302.853516,111.296875 L302.853516,117 L300.871094,117 L300.871094,102.419922 Z M314.660156,106.101562 L319.259766,106.101562 L319.259766,115.603516 L322.824219,115.603516 L322.824219,117 L313.898438,117 L313.898438,115.603516 L317.462891,115.603516 L317.462891,107.498047 L314.660156,107.498047 L314.660156,106.101562 Z M317.462891,101.853516 L319.259766,101.853516 L319.259766,104.119141 L317.462891,104.119141 L317.462891,101.853516 Z M329.611328,102.957031 L329.611328,106.0625 L333.693359,106.0625 L333.693359,107.458984 L329.611328,107.458984 L329.611328,113.396484 C329.611328,114.20378 329.764321,114.766925 330.070312,115.085938 C330.376304,115.40495 330.910152,115.564453 331.671875,115.564453 L333.693359,115.564453 L333.693359,117 L331.496094,117 C330.148431,117 329.197919,116.72982 328.644531,116.189453 C328.091143,115.649086 327.814453,114.718106 327.814453,113.396484 L327.814453,107.458984 L324.894531,107.458984 L324.894531,106.0625 L327.814453,106.0625 L327.814453,102.957031 L329.611328,102.957031 Z" id="@import-ReduxKit" fill="#4183C4" sketch:type="MSShapeGroup"></path>
        </g>
    </g>
</svg>